<svg xmlns="http://www.w3.org/2000/svg" width="118" height="75" xml:space="preserve" style="enable-background:new 0 0 118 75" viewBox="0 0 118 75"><path d="M68.052 62.655c-1.243-.41-2.152-.648-3.637-.648-1.092 0-2.394.384-2.394 1.679 0 2.414 7.061.883 7.061 6.353 0 3.533-3.243 4.947-6.546 4.947-1.548 0-3.123-.264-4.608-.647l.242-3.238c1.273.617 2.606 1 3.999 1 1.032 0 2.669-.383 2.669-1.853 0-2.972-7.062-.942-7.062-6.416 0-3.265 2.939-4.709 6.121-4.709 1.91 0 3.154.296 4.425.561l-.27 2.971zM86.964 59.496h4.063v15.155h-4.063zM116.429 62.655c-1.241-.41-2.151-.648-3.636-.648-1.093 0-2.395.384-2.395 1.679 0 2.414 7.062.883 7.062 6.353 0 3.533-3.243 4.947-6.545 4.947-1.547 0-3.122-.264-4.608-.647l.242-3.238c1.272.617 2.608 1 4.001 1 1.031 0 2.668-.383 2.668-1.853 0-2.972-7.062-.942-7.062-6.416 0-3.265 2.94-4.709 6.124-4.709 1.908 0 3.15.296 4.423.561l-.274 2.971zM79.031 66.289l5.754-6.793h-4.789l-4.849 6.062h-.061V51.341l-4.062 1.24v22.07h4.062v-7.357h.061l5.213 7.357h5.152zM93.647 52.581v22.07h4.06v-23.31zM100.048 52.581h-.003v22.07h4.063v-23.31zM91.343 53.838a2.263 2.263 0 1 0-4.526.002 2.263 2.263 0 0 0 4.526-.002M83.194 26.126s7.254-1.284 9.629-7.051c0 0 42.234 8.651 17.302 31.18 0 0 9.252-8.712 4.085-15.681 0 0 2.884 8.651-8.41 14.479-.001 0 24.494-17.399-22.606-22.927" style="fill:#fff"/><path d="M106.335 22.971c2.954 1.461 5.022 2.896 6.23 3.839.531-15.12-10.31-23.574-10.31-23.574-.316.969-1.262 2.05-2.614 2.546-1.351.496-2.163 2.118-2.163 2.118 5.299 4.406 7.844 9.787 8.857 15.071M91.701 20.146c.64-.956.819-1.612.819-1.612a55.122 55.122 0 0 1 7.528 1.881C95.421 7.221 86.815 0 86.815 0c-.24.691-2.763 1.952-4.476 2.704-1.712.751-1.262 3.935-1.262 3.935 4.707 3.888 8.13 8.648 10.624 13.507M109.406 34.761c-.583 6.51-4.448 13.42-4.448 13.42 2.729-4.151 4.595-8.049 5.801-11.681a7.618 7.618 0 0 0-1.353-1.739" style="fill:#fff"/><path d="M108.899 34.299a15.013 15.013 0 0 0-2.189-1.539c-.678 7.004-3.014 12.269-3.014 12.269 1.352-1.533 2.388-4.01 2.388-4.01.045 1.758-1.397 5.227-1.397 5.227 2.481-3.986 3.668-8.829 4.212-11.947M94.241 47.936c-1.502-.809-3.679-1.669-8.155-5.135 3.387 2.55 9.043 4.179 9.043 4.179C82.642 40.642 79.92 34.896 79.92 34.896c-1.202-.039-1.926.724-2.402.985-.476.261-1.774.239-1.774.239 4.758 7.673 18.497 11.816 18.497 11.816M88.655 27.281c-4.149-.687-7.196-.953-7.196-.953a24.754 24.754 0 0 0 4.276-1.474c-5.839-4.253-11.657-5.299-11.657-5.299s-1.081.36-1.232 2.162c-.149 1.803-1.531 2.043-1.531 2.043 21.808 5.827 25.082 23.79 25.082 23.79-1.487-8.111-4.641-13.292-4.641-13.292 3.334 3.424 5.632 12.121 5.632 12.121-.74-8.989-4.468-15.049-8.733-19.098M95.181 28.581c3.14 9.687 3.199 17.889 3.199 17.889 2.323-4.505 1.712-14.869 1.712-14.869 2.163 4.236 1.893 15.771 1.893 15.771 1.109-6.061 1.152-11.605.516-16.593-2.303-.884-4.835-1.609-7.32-2.198M4.093 73.41c.923 0 1.708-.245 2.356-.736.628-.451.952-1.099.972-1.943-.02-.883-.383-1.58-1.09-2.091-.707-.49-1.541-.932-2.503-1.325a20.424 20.424 0 0 1-1.296-.677 9.533 9.533 0 0 1-1.178-.795 4.065 4.065 0 0 1-.824-1.089C.314 64.362.206 63.9.206 63.37c.019-1.491.53-2.552 1.531-3.18.962-.608 2.08-.913 3.357-.913.432 0 .991.041 1.678.123.687.123 1.364.318 2.032.584l-.177 1.59a8.974 8.974 0 0 0-3.328-.707c-.962 0-1.728.176-2.297.527-.295.176-.52.42-.677.732-.177.312-.265.722-.265 1.229 0 .312.108.605.324.878.216.254.501.488.854.702.353.195.756.4 1.207.615.451.197.893.414 1.325.65a8.472 8.472 0 0 1 2.562 1.654c.726.689 1.099 1.644 1.119 2.865 0 .788-.157 1.447-.471 1.979a4.094 4.094 0 0 1-1.266 1.329c-1.099.648-2.266.973-3.503.973-1.453 0-2.856-.236-4.211-.707l.177-1.825c1.138.608 2.444.923 3.916.942zM27.472 74.647h-2.238l-4.093-12.985h-.059L16.99 74.647h-2.238L9.923 59.629h2.031L15.9 72.615h.059L20.14 59.63h2.238l3.975 12.985h.059l4.152-12.985h1.855l-4.947 15.017zM41.311 73.41c.923 0 1.708-.245 2.356-.736.628-.451.952-1.099.972-1.943-.02-.883-.383-1.58-1.09-2.091-.707-.49-1.541-.932-2.503-1.325a20.424 20.424 0 0 1-1.296-.677 9.533 9.533 0 0 1-1.178-.795 4.065 4.065 0 0 1-.824-1.089c-.216-.392-.324-.854-.324-1.384.019-1.491.53-2.552 1.531-3.18.962-.608 2.08-.913 3.357-.913.432 0 .991.041 1.678.123.687.123 1.364.318 2.032.584l-.177 1.59a8.974 8.974 0 0 0-3.328-.707c-.962 0-1.728.176-2.297.527-.295.176-.52.42-.677.732-.177.312-.265.722-.265 1.229 0 .312.108.605.324.878.216.254.501.488.854.702.353.195.756.4 1.207.615.451.197.893.414 1.325.65a8.472 8.472 0 0 1 2.562 1.654c.726.689 1.099 1.644 1.119 2.865 0 .788-.157 1.447-.471 1.979a4.094 4.094 0 0 1-1.266 1.329 6.783 6.783 0 0 1-3.503.973c-1.453 0-2.856-.236-4.211-.707l.177-1.825c1.138.608 2.444.923 3.916.942zM51.293 73.41c.923 0 1.708-.245 2.356-.736.628-.451.952-1.099.972-1.943-.02-.883-.383-1.58-1.09-2.091-.707-.49-1.541-.932-2.503-1.325a20.424 20.424 0 0 1-1.296-.677 9.533 9.533 0 0 1-1.178-.795 4.065 4.065 0 0 1-.824-1.089c-.216-.392-.324-.854-.324-1.384.019-1.491.53-2.552 1.531-3.18.962-.608 2.08-.913 3.357-.913.432 0 .991.041 1.678.123.687.123 1.364.318 2.032.584l-.177 1.59a8.974 8.974 0 0 0-3.328-.707c-.962 0-1.728.176-2.297.527-.295.176-.52.42-.677.732-.177.312-.265.722-.265 1.229 0 .312.108.605.324.878.216.254.501.488.854.702.353.195.756.4 1.207.615.451.197.893.414 1.325.65a8.472 8.472 0 0 1 2.562 1.654c.726.689 1.099 1.644 1.119 2.865 0 .788-.157 1.447-.471 1.979a4.094 4.094 0 0 1-1.266 1.329 6.789 6.789 0 0 1-3.503.973c-1.453 0-2.856-.236-4.211-.707l.177-1.825c1.138.608 2.444.923 3.916.942zM33.482 59.627h1.855v15.02h-1.855zM35.704 54.674a1.303 1.303 0 1 1-2.607 0 1.303 1.303 0 0 1 2.607 0z" style="fill:#fff"/></svg>
